# xmcd
#
# Track frame offsets:
# 150
# 15665
# 35050
# 51733
# 68201
# 86688
# 100285
# 114979
# 129562
# 142139
# 157127
# 176933
# 193965
# 209102
# 221796
#
# Disc length: 3212 seconds
#
#
# Revision: 0
# Processed by: cddbd v1.5.1PL2 Copyright (c) Steve Scherf et al.
# Submitted via: FreeRIP 2.945 
#
DISCID=fc0c8a0f
DTITLE=Blackhawk - Greatest Hits
DYEAR=1900
DGENRE=Country
TTITLE0=Goodbye Says It All
TTITLE1=I'm Not Strong Enough To Say No
TTITLE2=Every Once In A While
TTITLE3=I Sure Can Smell The Rain
TTITLE4=That's Just About Right
TTITLE5=Big Guitar
TTITLE6=Almost A Memory Now
TTITLE7=There You Have It
TTITLE8=Always Have, Always Will
TTITLE9=Like There Ain't No Yesterday
TTITLE10=Postmarked Birmingham
TTITLE11=Down In Flames
TTITLE12=It Takes A Woman
TTITLE13=I Need You All The Time
TTITLE14=Ships Of Heaven
EXTD=
EXTT0=
EXTT1=
EXTT2=
EXTT3=
EXTT4=
EXTT5=
EXTT6=
EXTT7=
EXTT8=
EXTT9=
EXTT10=
EXTT11=
EXTT12=
EXTT13=
EXTT14=
PLAYORDER=
